M48
;GenerationSoftware,Autodesk,EAGLE,9.1.1*%
;CreationDate,2018-07-19T20:24:25Z*%
FMAT,2
ICI,OFF
INCH,TZ,00.0000
T8C0.0315
T7C0.0354
T6C0.0380
T5C0.0394
T4C0.0472
T3C0.0591
T2C0.0730
T1C0.0787
%
G90
M72
T1
X9181Y7681
X19354Y7681
X9181Y14406
X19354Y14406
T2
X7500Y3000
X4600Y3000
X21500Y3000
X24400Y3000
X21500Y9000
X24400Y9000
X7500Y9000
X4600Y9000
T3
X23409Y14606
T4
X18516Y5961
X20484Y5961
X20484Y1039
X18516Y1039
X13516Y5961
X15484Y5961
X15484Y1039
X13516Y1039
X8516Y5961
X10484Y5961
X10484Y1039
X8516Y1039
T5
X13799Y7600
X12799Y7600
X11799Y7600
X10799Y7600
X14799Y7600
X15799Y7600
X16799Y7600
X17799Y7600
X2906Y14083
X2906Y16839
X1055Y15500
X2906Y10083
X2906Y12839
X1055Y11500
X2906Y6083
X2906Y8839
X1055Y7500
X2906Y2083
X2906Y4839
X1055Y3500
T6
X16500Y17500
X14500Y17500
X13500Y17500
X12500Y17500
X17500Y18500
X16500Y18500
X15500Y18500
X14500Y18500
X13500Y18500
X12500Y18500
X11500Y18500
X10500Y18500
X9500Y18500
X8500Y18500
X7500Y18500
X6500Y18500
X5500Y18500
X4500Y18500
X4500Y17500
X4500Y16500
X4500Y15500
X4500Y14500
X4500Y13500
X4500Y12500
X5500Y12500
X6500Y12500
X7500Y12500
X8500Y12500
X9500Y12500
X10500Y12500
X11500Y12500
X12500Y12500
X13500Y12500
X14500Y12500
X15500Y12500
X16500Y12500
X17500Y12500
T7
X23220Y6000
X25780Y6000
T8
X6500Y6000
X5500Y6000
X4500Y6000
M30