G04 EAGLE Gerber X2 export*
%TF.Part,Single*%
%TF.FileFunction,Copper,L2,Bot,Mixed*%
%TF.FilePolarity,Positive*%
%TF.GenerationSoftware,Autodesk,EAGLE,9.1.1*%
%TF.CreationDate,2018-07-19T20:24:25Z*%
G75*
%MOIN*%
%FSLAX36Y36*%
%LPD*%
%AMOC8*
5,1,8,0,0,1.08239X$1,22.5*%
G01*
%ADD10C,0.109500*%
%ADD11C,0.051496*%
%ADD12R,0.088583X0.088583*%
%ADD13C,0.058000*%
%ADD14C,0.059370*%
%ADD15C,0.118110*%
%ADD16C,0.076000*%
%ADD17C,0.085000*%
%ADD18C,0.070000*%


D10*
X750000Y300000D03*
X460000Y300000D03*
X2150000Y300000D03*
X2440000Y300000D03*
X2150000Y900000D03*
X2440000Y900000D03*
X750000Y900000D03*
X460000Y900000D03*
D11*
X450000Y625748D02*
X450000Y574252D01*
X550000Y574252D02*
X550000Y625748D01*
X650000Y625748D02*
X650000Y574252D01*
D12*
X2340945Y1460630D03*
D13*
X1750000Y1250000D03*
X1650000Y1250000D03*
X1550000Y1250000D03*
X1450000Y1250000D03*
X1350000Y1250000D03*
X1250000Y1250000D03*
X1150000Y1250000D03*
X1050000Y1250000D03*
X950000Y1250000D03*
X850000Y1250000D03*
X750000Y1250000D03*
X650000Y1250000D03*
X550000Y1250000D03*
X450000Y1250000D03*
X450000Y1350000D03*
X450000Y1450000D03*
X450000Y1550000D03*
X450000Y1650000D03*
X450000Y1750000D03*
X450000Y1850000D03*
X550000Y1850000D03*
X650000Y1850000D03*
X750000Y1850000D03*
X850000Y1850000D03*
X950000Y1850000D03*
X1050000Y1850000D03*
X1150000Y1850000D03*
X1250000Y1850000D03*
X1350000Y1850000D03*
X1450000Y1850000D03*
X1550000Y1850000D03*
X1650000Y1850000D03*
X1750000Y1850000D03*
X1650000Y1750000D03*
X1450000Y1750000D03*
X1350000Y1750000D03*
X1250000Y1750000D03*
D14*
X105512Y379685D02*
X105512Y320315D01*
X260866Y483858D02*
X320236Y483858D01*
X320236Y208268D02*
X260866Y208268D01*
X105512Y720315D02*
X105512Y779685D01*
X260866Y883858D02*
X320236Y883858D01*
X320236Y608268D02*
X260866Y608268D01*
X105512Y1120315D02*
X105512Y1179685D01*
X260866Y1283858D02*
X320236Y1283858D01*
X320236Y1008268D02*
X260866Y1008268D01*
X105512Y1520315D02*
X105512Y1579685D01*
X260866Y1683858D02*
X320236Y1683858D01*
X320236Y1408268D02*
X260866Y1408268D01*
D15*
X918110Y768110D03*
X1935433Y768110D03*
X918110Y1440551D03*
X1935433Y1440551D03*
D16*
X1079921Y760000D03*
X1179921Y760000D03*
X1279921Y760000D03*
X1379921Y760000D03*
X1479921Y760000D03*
X1579921Y760000D03*
X1679921Y760000D03*
X1779921Y760000D03*
D17*
X851575Y103937D03*
X1048425Y103937D03*
X1048425Y596063D03*
X851575Y596063D03*
X1351575Y103937D03*
X1548425Y103937D03*
X1548425Y596063D03*
X1351575Y596063D03*
X1851575Y103937D03*
X2048425Y103937D03*
X2048425Y596063D03*
X1851575Y596063D03*
D18*
X2322047Y600000D03*
X2577953Y600000D03*
M02*
